<?xml version="1.0" standalone="no"?>
<!DOCTYPE svg PUBLIC "-//W3C//DTD SVG 20010904//EN"
 "http://www.w3.org/TR/2001/REC-SVG-20010904/DTD/svg10.dtd">
<svg version="1.0" xmlns="http://www.w3.org/2000/svg"
 width="24.000000pt" height="24.000000pt" viewBox="0 0 24.000000 24.000000"
 preserveAspectRatio="xMidYMid meet">

<g transform="translate(0.000000,24.000000) scale(0.100000,-0.100000)"
fill="#000000" stroke="none">
<path d="M7 224 c-4 -4 -7 -42 -7 -85 0 -83 4 -89 60 -89 17 0 33 -8 43 -23
l16 -22 16 23 c11 15 27 22 48 22 54 0 58 9 55 96 l-3 79 -111 3 c-60 1 -113
-1 -117 -4z m221 -81 l-3 -78 -39 -3 c-25 -2 -45 -11 -56 -25 l-17 -21 -7 21
c-5 17 -16 23 -49 25 l-42 3 -3 78 -3 77 111 0 111 0 -3 -77z"/>
<path d="M83 173 c20 -2 54 -2 75 0 20 2 3 4 -38 4 -41 0 -58 -2 -37 -4z"/>
<path d="M77 143 c24 -2 62 -2 85 0 24 2 5 4 -42 4 -47 0 -66 -2 -43 -4z"/>
<path d="M77 113 c24 -2 62 -2 85 0 24 2 5 4 -42 4 -47 0 -66 -2 -43 -4z"/>
</g>
</svg>
