<?xml version="1.0" standalone="no"?>
<!DOCTYPE svg PUBLIC "-//W3C//DTD SVG 20010904//EN"
 "http://www.w3.org/TR/2001/REC-SVG-20010904/DTD/svg10.dtd">
<svg version="1.0" xmlns="http://www.w3.org/2000/svg"
 width="24.000000pt" height="24.000000pt" viewBox="0 0 24.000000 24.000000"
 preserveAspectRatio="xMidYMid meet">

<g transform="translate(0.000000,24.000000) scale(0.100000,-0.100000)"
fill="#000000" stroke="none">
<path d="M80 223 c-44 -9 -50 -21 -50 -107 0 -44 4 -87 9 -94 5 -9 29 -12 82
-10 l74 3 3 94 c1 52 -1 98 -5 102 -11 10 -83 18 -113 12z m54 -9 c26 -10 18
-24 -14 -24 -30 0 -41 14 -17 23 6 3 13 6 14 6 1 1 8 -2 17 -5z m-58 -19 c8
-21 70 -20 82 1 20 35 32 2 32 -87 l0 -89 -70 0 -70 0 0 95 c0 59 4 95 10 95
6 0 13 -7 16 -15z"/>
<path d="M130 115 c-8 -10 -21 -13 -34 -9 -20 6 -20 5 -3 -12 16 -18 18 -18
39 4 12 12 19 24 16 27 -3 3 -11 -1 -18 -10z"/>
</g>
</svg>
