<?xml version="1.0" standalone="no"?>
<!DOCTYPE svg PUBLIC "-//W3C//DTD SVG 20010904//EN"
 "http://www.w3.org/TR/2001/REC-SVG-20010904/DTD/svg10.dtd">
<svg version="1.0" xmlns="http://www.w3.org/2000/svg"
 width="24.000000pt" height="24.000000pt" viewBox="0 0 24.000000 24.000000"
 preserveAspectRatio="xMidYMid meet">

<g transform="translate(0.000000,24.000000) scale(0.100000,-0.100000)"
fill="#000000" stroke="none">
<path d="M80 230 c-8 -5 -23 -11 -34 -14 -14 -5 -17 -12 -12 -29 4 -12 10 -59
13 -104 l6 -83 67 0 67 0 6 83 c3 45 9 92 13 104 5 17 2 24 -12 29 -11 3 -27
10 -36 15 -22 11 -58 11 -78 -1z m78 -37 c-21 -2 -55 -2 -75 0 -21 2 -4 4 37
4 41 0 58 -2 38 -4z m20 -90 l-3 -78 -55 0 -55 0 -3 78 -3 77 61 0 61 0 -3
-77z"/>
<path d="M80 95 c0 -35 4 -54 10 -50 6 3 10 26 10 50 0 24 -4 47 -10 50 -6 4
-10 -15 -10 -50z"/>
<path d="M110 95 c0 -30 5 -55 10 -55 6 0 10 25 10 55 0 30 -4 55 -10 55 -5 0
-10 -25 -10 -55z"/>
<path d="M147 143 c-11 -10 -8 -91 3 -98 6 -4 10 15 10 49 0 57 -1 61 -13 49z"/>
</g>
</svg>
