<?xml version="1.0" standalone="no"?>
<!DOCTYPE svg PUBLIC "-//W3C//DTD SVG 20010904//EN"
 "http://www.w3.org/TR/2001/REC-SVG-20010904/DTD/svg10.dtd">
<svg version="1.0" xmlns="http://www.w3.org/2000/svg"
 width="50.000000pt" height="50.000000pt" viewBox="0 0 50.000000 50.000000"
 preserveAspectRatio="xMidYMid meet">

<g transform="translate(0.000000,50.000000) scale(0.100000,-0.100000)"
fill="#000000" stroke="none">
<path d="M145 485 c-22 -8 -54 -30 -72 -49 -63 -68 -68 -170 -14 -272 24 -43
31 -70 31 -110 0 -30 5 -54 10 -54 24 0 10 103 -25 180 -40 88 -44 135 -16
195 32 69 91 105 170 105 92 0 162 -47 181 -123 6 -23 22 -63 36 -89 l25 -48
-25 -12 c-22 -9 -26 -18 -26 -55 0 -54 -26 -83 -75 -83 -33 0 -35 -2 -35 -35
0 -19 5 -35 10 -35 6 0 10 11 10 25 0 18 5 25 20 25 52 0 90 41 90 98 0 17 10
34 28 48 l27 23 -27 48 c-14 26 -31 67 -37 90 -31 114 -160 172 -286 128z"/>
<path d="M215 390 c-29 -11 -47 -36 -43 -57 3 -14 7 -12 19 12 16 33 51 44 75
25 21 -18 17 -47 -11 -84 -26 -34 -33 -66 -15 -66 6 0 10 8 10 18 0 10 11 29
25 42 57 53 10 139 -60 110z"/>
<path d="M225 190 c-7 -12 2 -30 16 -30 5 0 9 9 9 20 0 21 -15 27 -25 10z"/>
</g>
</svg>
